<svg width="76" height="50" viewBox="0 0 76 50" fill="none" xmlns="http://www.w3.org/2000/svg">
<path d="M52.1156 25.1054L71.4766 8.28454V41.7343L52.1156 25.1054ZM27.1675 27.954L33.9664 33.8558C35.0334 34.7624 36.4247 35.31 37.945 35.31H37.9985H38.0394C39.5629 35.31 40.9541 34.7592 42.0338 33.8464L42.0243 33.8527L48.8232 27.9509L69.4905 45.7003H6.50967L27.1675 27.954ZM6.48134 4.29651H69.5282L39.245 30.598C38.9045 30.8674 38.483 31.0138 38.0489 31.0135H38.0048H37.9639C37.5282 31.0141 37.1053 30.8665 36.7646 30.5949L36.7678 30.598L6.48134 4.29651ZM4.52667 8.2814L23.8846 25.1023L4.52667 41.7217V8.2814ZM72.5153 0.598049C71.7599 0.220334 70.8723 0 69.9311 0H6.0816C5.16929 0.000217926 4.26953 0.212498 3.45333 0.620082L3.48795 0.604343C2.51085 1.08628 1.68798 1.83185 1.1123 2.75683C0.536618 3.68181 0.231068 4.74935 0.230164 5.83884L0.230164 44.1517C0.23183 45.7023 0.848522 47.1888 1.94493 48.2852C3.04133 49.3816 4.5279 49.9983 6.07845 50H69.9217C71.4722 49.9983 72.9588 49.3816 74.0552 48.2852C75.1516 47.1888 75.7683 45.7023 75.77 44.1517V5.83884C75.77 3.55052 74.4511 1.56752 72.5311 0.613787L72.4965 0.598049H72.5153Z" fill="#00296D"/>
</svg>
