<svg width="330" height="65" viewBox="0 0 330 65" fill="none" xmlns="http://www.w3.org/2000/svg">
<path d="M91.6046 17.4102C91.6046 18.7305 91.4366 19.9336 91.1007 21.0195C90.7726 22.0977 90.2765 23.0273 89.6124 23.8086C88.9484 24.582 88.1163 25.1797 87.1163 25.6016C86.1163 26.0234 84.9445 26.2344 83.6007 26.2344C82.2335 26.2344 81.046 26.0234 80.0382 25.6016C79.0382 25.1797 78.2062 24.5781 77.5421 23.7969C76.8859 23.0156 76.3937 22.082 76.0656 20.9961C75.7374 19.9102 75.5734 18.707 75.5734 17.3867C75.5734 15.6211 75.8624 14.082 76.4406 12.7695C77.0265 11.4492 77.9132 10.4258 79.1007 9.69922C80.296 8.96484 81.8038 8.59766 83.6241 8.59766C85.4054 8.59766 86.8859 8.96094 88.0656 9.6875C89.2452 10.4141 90.1281 11.4375 90.714 12.7578C91.3077 14.0703 91.6046 15.6211 91.6046 17.4102ZM78.5265 17.4102C78.5265 18.7305 78.7062 19.875 79.0656 20.8438C79.4249 21.8047 79.9757 22.5469 80.7179 23.0703C81.4679 23.5859 82.4288 23.8438 83.6007 23.8438C84.7804 23.8438 85.7413 23.5859 86.4835 23.0703C87.2257 22.5469 87.7726 21.8047 88.1241 20.8438C88.4757 19.875 88.6515 18.7305 88.6515 17.4102C88.6515 15.4023 88.2491 13.832 87.4445 12.6992C86.6476 11.5586 85.3741 10.9883 83.6241 10.9883C82.4523 10.9883 81.4874 11.2461 80.7296 11.7617C79.9796 12.2773 79.4249 13.0156 79.0656 13.9766C78.7062 14.9297 78.5265 16.0742 78.5265 17.4102ZM99.3624 26.2344C97.8156 26.2344 96.5734 25.6719 95.6359 24.5469C94.7062 23.4141 94.2413 21.7461 94.2413 19.543C94.2413 17.3164 94.714 15.6328 95.6593 14.4922C96.6124 13.3516 97.8663 12.7812 99.421 12.7812C100.077 12.7812 100.651 12.8711 101.144 13.0508C101.636 13.2227 102.058 13.457 102.409 13.7539C102.769 14.0508 103.073 14.3828 103.323 14.75H103.452C103.413 14.5078 103.366 14.1602 103.312 13.707C103.265 13.2461 103.241 12.8203 103.241 12.4297V7.76562H106.007V26H103.851L103.359 24.2305H103.241C103.007 24.6055 102.71 24.9453 102.351 25.25C101.999 25.5469 101.577 25.7852 101.085 25.9648C100.601 26.1445 100.026 26.2344 99.3624 26.2344ZM100.136 23.9961C101.316 23.9961 102.148 23.6562 102.632 22.9766C103.116 22.2969 103.366 21.2773 103.382 19.918V19.5547C103.382 18.1016 103.148 16.9883 102.679 16.2148C102.21 15.4336 101.355 15.043 100.112 15.043C99.1202 15.043 98.3624 15.4453 97.839 16.25C97.3234 17.0469 97.0656 18.1602 97.0656 19.5898C97.0656 21.0195 97.3234 22.1133 97.839 22.8711C98.3624 23.6211 99.1281 23.9961 100.136 23.9961ZM121.441 19.4844C121.441 20.5625 121.3 21.5195 121.019 22.3555C120.737 23.1914 120.327 23.8984 119.788 24.4766C119.249 25.0469 118.601 25.4844 117.843 25.7891C117.085 26.0859 116.23 26.2344 115.276 26.2344C114.386 26.2344 113.569 26.0859 112.827 25.7891C112.085 25.4844 111.441 25.0469 110.894 24.4766C110.355 23.8984 109.937 23.1914 109.64 22.3555C109.343 21.5195 109.194 20.5625 109.194 19.4844C109.194 18.0547 109.441 16.8438 109.933 15.8516C110.433 14.8516 111.144 14.0898 112.066 13.5664C112.987 13.043 114.085 12.7812 115.359 12.7812C116.554 12.7812 117.609 13.043 118.523 13.5664C119.437 14.0898 120.151 14.8516 120.667 15.8516C121.183 16.8516 121.441 18.0625 121.441 19.4844ZM112.03 19.4844C112.03 20.4297 112.144 21.2383 112.37 21.9102C112.605 22.582 112.964 23.0977 113.448 23.457C113.933 23.8086 114.558 23.9844 115.323 23.9844C116.089 23.9844 116.714 23.8086 117.198 23.457C117.683 23.0977 118.038 22.582 118.265 21.9102C118.491 21.2383 118.605 20.4297 118.605 19.4844C118.605 18.5391 118.491 17.7383 118.265 17.082C118.038 16.418 117.683 15.9141 117.198 15.5703C116.714 15.2188 116.085 15.043 115.312 15.043C114.171 15.043 113.339 15.4258 112.816 16.1914C112.292 16.957 112.03 18.0547 112.03 19.4844ZM131.366 12.7812C132.827 12.7812 133.964 13.1602 134.776 13.918C135.597 14.668 136.007 15.875 136.007 17.5391V26H133.253V18.0547C133.253 17.0469 133.046 16.293 132.632 15.793C132.218 15.2852 131.577 15.0312 130.71 15.0312C129.452 15.0312 128.577 15.418 128.085 16.1914C127.601 16.9648 127.359 18.0859 127.359 19.5547V26H124.605V13.0273H126.749L127.136 14.7852H127.288C127.569 14.332 127.917 13.9609 128.331 13.6719C128.753 13.375 129.222 13.1523 129.737 13.0039C130.261 12.8555 130.804 12.7812 131.366 12.7812ZM144.691 24.0078C145.05 24.0078 145.405 23.9766 145.757 23.9141C146.109 23.8438 146.429 23.7617 146.718 23.668V25.7539C146.413 25.8867 146.019 26 145.534 26.0938C145.05 26.1875 144.546 26.2344 144.023 26.2344C143.288 26.2344 142.628 26.1133 142.042 25.8711C141.456 25.6211 140.991 25.1953 140.648 24.5938C140.304 23.9922 140.132 23.1602 140.132 22.0977V15.125H138.362V13.8945L140.261 12.9219L141.163 10.1445H142.898V13.0273H146.612V15.125H142.898V22.0625C142.898 22.7188 143.062 23.207 143.39 23.5273C143.718 23.8477 144.151 24.0078 144.691 24.0078ZM160.839 19.4844C160.839 20.5625 160.698 21.5195 160.417 22.3555C160.136 23.1914 159.726 23.8984 159.187 24.4766C158.648 25.0469 157.999 25.4844 157.241 25.7891C156.484 26.0859 155.628 26.2344 154.675 26.2344C153.784 26.2344 152.968 26.0859 152.226 25.7891C151.484 25.4844 150.839 25.0469 150.292 24.4766C149.753 23.8984 149.335 23.1914 149.038 22.3555C148.741 21.5195 148.593 20.5625 148.593 19.4844C148.593 18.0547 148.839 16.8438 149.331 15.8516C149.831 14.8516 150.542 14.0898 151.464 13.5664C152.386 13.043 153.484 12.7812 154.757 12.7812C155.952 12.7812 157.007 13.043 157.921 13.5664C158.835 14.0898 159.55 14.8516 160.066 15.8516C160.581 16.8516 160.839 18.0625 160.839 19.4844ZM151.429 19.4844C151.429 20.4297 151.542 21.2383 151.769 21.9102C152.003 22.582 152.362 23.0977 152.847 23.457C153.331 23.8086 153.956 23.9844 154.722 23.9844C155.487 23.9844 156.112 23.8086 156.597 23.457C157.081 23.0977 157.437 22.582 157.663 21.9102C157.89 21.2383 158.003 20.4297 158.003 19.4844C158.003 18.5391 157.89 17.7383 157.663 17.082C157.437 16.418 157.081 15.9141 156.597 15.5703C156.112 15.2188 155.484 15.043 154.71 15.043C153.569 15.043 152.737 15.4258 152.214 16.1914C151.691 16.957 151.429 18.0547 151.429 19.4844ZM166.769 26H164.003V7.76562H166.769V26ZM182.191 19.4844C182.191 20.5625 182.05 21.5195 181.769 22.3555C181.487 23.1914 181.077 23.8984 180.538 24.4766C179.999 25.0469 179.351 25.4844 178.593 25.7891C177.835 26.0859 176.98 26.2344 176.026 26.2344C175.136 26.2344 174.319 26.0859 173.577 25.7891C172.835 25.4844 172.191 25.0469 171.644 24.4766C171.105 23.8984 170.687 23.1914 170.39 22.3555C170.093 21.5195 169.944 20.5625 169.944 19.4844C169.944 18.0547 170.191 16.8438 170.683 15.8516C171.183 14.8516 171.894 14.0898 172.816 13.5664C173.737 13.043 174.835 12.7812 176.109 12.7812C177.304 12.7812 178.359 13.043 179.273 13.5664C180.187 14.0898 180.901 14.8516 181.417 15.8516C181.933 16.8516 182.191 18.0625 182.191 19.4844ZM172.78 19.4844C172.78 20.4297 172.894 21.2383 173.12 21.9102C173.355 22.582 173.714 23.0977 174.198 23.457C174.683 23.8086 175.308 23.9844 176.073 23.9844C176.839 23.9844 177.464 23.8086 177.948 23.457C178.433 23.0977 178.788 22.582 179.015 21.9102C179.241 21.2383 179.355 20.4297 179.355 19.4844C179.355 18.5391 179.241 17.7383 179.015 17.082C178.788 16.418 178.433 15.9141 177.948 15.5703C177.464 15.2188 176.835 15.043 176.062 15.043C174.921 15.043 174.089 15.4258 173.566 16.1914C173.042 16.957 172.78 18.0547 172.78 19.4844ZM189.058 31.7656C187.3 31.7656 185.952 31.4492 185.015 30.8164C184.077 30.1836 183.609 29.2969 183.609 28.1562C183.609 27.3594 183.859 26.6836 184.359 26.1289C184.859 25.582 185.573 25.2031 186.503 24.9922C186.151 24.8359 185.847 24.5938 185.589 24.2656C185.339 23.9297 185.214 23.5586 185.214 23.1523C185.214 22.668 185.351 22.2539 185.624 21.9102C185.898 21.5664 186.308 21.2344 186.855 20.9141C186.175 20.625 185.628 20.1562 185.214 19.5078C184.808 18.8516 184.605 18.082 184.605 17.1992C184.605 16.2617 184.804 15.4648 185.202 14.8086C185.601 14.1445 186.183 13.6406 186.948 13.2969C187.714 12.9453 188.64 12.7695 189.726 12.7695C189.96 12.7695 190.214 12.7852 190.487 12.8164C190.769 12.8398 191.026 12.8711 191.261 12.9102C191.503 12.9414 191.687 12.9766 191.812 13.0156H196.3V14.5508L194.097 14.9609C194.308 15.2578 194.476 15.5977 194.601 15.9805C194.726 16.3555 194.788 16.7656 194.788 17.2109C194.788 18.5547 194.323 19.6133 193.394 20.3867C192.472 21.1523 191.198 21.5352 189.573 21.5352C189.183 21.5195 188.804 21.4883 188.437 21.4414C188.155 21.6133 187.941 21.8047 187.792 22.0156C187.644 22.2188 187.569 22.4492 187.569 22.707C187.569 22.918 187.644 23.0898 187.792 23.2227C187.941 23.3477 188.159 23.4414 188.448 23.5039C188.745 23.5664 189.105 23.5977 189.526 23.5977H191.765C193.187 23.5977 194.273 23.8984 195.023 24.5C195.773 25.1016 196.148 25.9844 196.148 27.1484C196.148 28.625 195.538 29.7617 194.319 30.5586C193.101 31.3633 191.347 31.7656 189.058 31.7656ZM189.163 29.832C190.124 29.832 190.933 29.7383 191.589 29.5508C192.245 29.3633 192.741 29.0938 193.077 28.7422C193.413 28.3984 193.581 27.9883 193.581 27.5117C193.581 27.0898 193.476 26.7656 193.265 26.5391C193.054 26.3125 192.737 26.1562 192.316 26.0703C191.894 25.9844 191.37 25.9414 190.745 25.9414H188.706C188.198 25.9414 187.749 26.0195 187.359 26.1758C186.968 26.3398 186.663 26.5742 186.444 26.8789C186.234 27.1836 186.128 27.5508 186.128 27.9805C186.128 28.5742 186.39 29.0312 186.913 29.3516C187.444 29.6719 188.194 29.832 189.163 29.832ZM189.702 19.7305C190.507 19.7305 191.105 19.5117 191.495 19.0742C191.886 18.6289 192.081 18.0039 192.081 17.1992C192.081 16.3242 191.878 15.668 191.472 15.2305C191.073 14.793 190.48 14.5742 189.691 14.5742C188.917 14.5742 188.327 14.7969 187.921 15.2422C187.523 15.6875 187.323 16.3477 187.323 17.2227C187.323 18.0117 187.523 18.6289 187.921 19.0742C188.327 19.5117 188.921 19.7305 189.702 19.7305ZM201.421 13.0273V26H198.667V13.0273H201.421ZM200.062 8.05859C200.484 8.05859 200.847 8.17188 201.151 8.39844C201.464 8.625 201.62 9.01562 201.62 9.57031C201.62 10.1172 201.464 10.5078 201.151 10.7422C200.847 10.9688 200.484 11.082 200.062 11.082C199.624 11.082 199.253 10.9688 198.948 10.7422C198.651 10.5078 198.503 10.1172 198.503 9.57031C198.503 9.01562 198.651 8.625 198.948 8.39844C199.253 8.17188 199.624 8.05859 200.062 8.05859ZM210.456 12.7812C212.097 12.7812 213.335 13.1445 214.171 13.8711C215.015 14.5977 215.437 15.7305 215.437 17.2695V26H213.48L212.952 24.1602H212.859C212.491 24.6289 212.112 25.0156 211.722 25.3203C211.331 25.625 210.878 25.8516 210.362 26C209.855 26.1562 209.234 26.2344 208.499 26.2344C207.726 26.2344 207.034 26.0938 206.425 25.8125C205.816 25.5234 205.335 25.0859 204.984 24.5C204.632 23.9141 204.456 23.1719 204.456 22.2734C204.456 20.9375 204.952 19.9336 205.944 19.2617C206.944 18.5898 208.452 18.2188 210.468 18.1484L212.718 18.0664V17.3867C212.718 16.4883 212.507 15.8477 212.085 15.4648C211.671 15.082 211.085 14.8906 210.327 14.8906C209.679 14.8906 209.05 14.9844 208.441 15.1719C207.831 15.3594 207.237 15.5898 206.659 15.8633L205.769 13.918C206.401 13.582 207.12 13.3086 207.925 13.0977C208.737 12.8867 209.581 12.7812 210.456 12.7812ZM212.706 19.8008L211.03 19.8594C209.655 19.9062 208.691 20.1406 208.136 20.5625C207.581 20.9844 207.304 21.5625 207.304 22.2969C207.304 22.9375 207.495 23.4062 207.878 23.7031C208.261 23.9922 208.765 24.1367 209.39 24.1367C210.343 24.1367 211.132 23.8672 211.757 23.3281C212.39 22.7812 212.706 21.9805 212.706 20.9258V19.8008ZM225.808 26V8.86719H228.62V26H225.808ZM239.624 12.7812C241.085 12.7812 242.222 13.1602 243.034 13.918C243.855 14.668 244.265 15.875 244.265 17.5391V26H241.511V18.0547C241.511 17.0469 241.304 16.293 240.89 15.793C240.476 15.2852 239.835 15.0312 238.968 15.0312C237.71 15.0312 236.835 15.418 236.343 16.1914C235.859 16.9648 235.616 18.0859 235.616 19.5547V26H232.862V13.0273H235.007L235.394 14.7852H235.546C235.827 14.332 236.175 13.9609 236.589 13.6719C237.011 13.375 237.48 13.1523 237.995 13.0039C238.519 12.8555 239.062 12.7812 239.624 12.7812ZM252.948 24.0078C253.308 24.0078 253.663 23.9766 254.015 23.9141C254.366 23.8438 254.687 23.7617 254.976 23.668V25.7539C254.671 25.8867 254.276 26 253.792 26.0938C253.308 26.1875 252.804 26.2344 252.28 26.2344C251.546 26.2344 250.886 26.1133 250.3 25.8711C249.714 25.6211 249.249 25.1953 248.905 24.5938C248.562 23.9922 248.39 23.1602 248.39 22.0977V15.125H246.62V13.8945L248.519 12.9219L249.421 10.1445H251.155V13.0273H254.87V15.125H251.155V22.0625C251.155 22.7188 251.319 23.207 251.648 23.5273C251.976 23.8477 252.409 24.0078 252.948 24.0078ZM262.78 12.7812C263.937 12.7812 264.929 13.0195 265.757 13.4961C266.585 13.9727 267.222 14.6484 267.667 15.5234C268.112 16.3984 268.335 17.4453 268.335 18.6641V20.1406H259.675C259.706 21.3984 260.042 22.3672 260.683 23.0469C261.331 23.7266 262.237 24.0664 263.401 24.0664C264.23 24.0664 264.972 23.9883 265.628 23.832C266.292 23.668 266.976 23.4297 267.679 23.1172V25.3555C267.03 25.6602 266.37 25.8828 265.698 26.0234C265.026 26.1641 264.222 26.2344 263.284 26.2344C262.011 26.2344 260.89 25.9883 259.921 25.4961C258.96 24.9961 258.206 24.2539 257.659 23.2695C257.12 22.2852 256.851 21.0625 256.851 19.6016C256.851 18.1484 257.097 16.9141 257.589 15.8984C258.081 14.8828 258.773 14.1094 259.663 13.5781C260.554 13.0469 261.593 12.7812 262.78 12.7812ZM262.78 14.8555C261.913 14.8555 261.21 15.1367 260.671 15.6992C260.14 16.2617 259.827 17.0859 259.734 18.1719H265.64C265.632 17.5234 265.523 16.9492 265.312 16.4492C265.109 15.9492 264.796 15.5586 264.374 15.2773C263.96 14.9961 263.429 14.8555 262.78 14.8555ZM275.144 31.7656C273.386 31.7656 272.038 31.4492 271.101 30.8164C270.163 30.1836 269.694 29.2969 269.694 28.1562C269.694 27.3594 269.944 26.6836 270.444 26.1289C270.944 25.582 271.659 25.2031 272.589 24.9922C272.237 24.8359 271.933 24.5938 271.675 24.2656C271.425 23.9297 271.3 23.5586 271.3 23.1523C271.3 22.668 271.437 22.2539 271.71 21.9102C271.984 21.5664 272.394 21.2344 272.941 20.9141C272.261 20.625 271.714 20.1562 271.3 19.5078C270.894 18.8516 270.691 18.082 270.691 17.1992C270.691 16.2617 270.89 15.4648 271.288 14.8086C271.687 14.1445 272.269 13.6406 273.034 13.2969C273.8 12.9453 274.726 12.7695 275.812 12.7695C276.046 12.7695 276.3 12.7852 276.573 12.8164C276.855 12.8398 277.112 12.8711 277.347 12.9102C277.589 12.9414 277.773 12.9766 277.898 13.0156H282.386V14.5508L280.183 14.9609C280.394 15.2578 280.562 15.5977 280.687 15.9805C280.812 16.3555 280.874 16.7656 280.874 17.2109C280.874 18.5547 280.409 19.6133 279.48 20.3867C278.558 21.1523 277.284 21.5352 275.659 21.5352C275.269 21.5195 274.89 21.4883 274.523 21.4414C274.241 21.6133 274.026 21.8047 273.878 22.0156C273.73 22.2188 273.655 22.4492 273.655 22.707C273.655 22.918 273.73 23.0898 273.878 23.2227C274.026 23.3477 274.245 23.4414 274.534 23.5039C274.831 23.5664 275.191 23.5977 275.612 23.5977H277.851C279.273 23.5977 280.359 23.8984 281.109 24.5C281.859 25.1016 282.234 25.9844 282.234 27.1484C282.234 28.625 281.624 29.7617 280.405 30.5586C279.187 31.3633 277.433 31.7656 275.144 31.7656ZM275.249 29.832C276.21 29.832 277.019 29.7383 277.675 29.5508C278.331 29.3633 278.827 29.0938 279.163 28.7422C279.499 28.3984 279.667 27.9883 279.667 27.5117C279.667 27.0898 279.562 26.7656 279.351 26.5391C279.14 26.3125 278.823 26.1562 278.401 26.0703C277.98 25.9844 277.456 25.9414 276.831 25.9414H274.792C274.284 25.9414 273.835 26.0195 273.444 26.1758C273.054 26.3398 272.749 26.5742 272.53 26.8789C272.319 27.1836 272.214 27.5508 272.214 27.9805C272.214 28.5742 272.476 29.0312 272.999 29.3516C273.53 29.6719 274.28 29.832 275.249 29.832ZM275.788 19.7305C276.593 19.7305 277.191 19.5117 277.581 19.0742C277.972 18.6289 278.167 18.0039 278.167 17.1992C278.167 16.3242 277.964 15.668 277.558 15.2305C277.159 14.793 276.566 14.5742 275.776 14.5742C275.003 14.5742 274.413 14.7969 274.007 15.2422C273.609 15.6875 273.409 16.3477 273.409 17.2227C273.409 18.0117 273.609 18.6289 274.007 19.0742C274.413 19.5117 275.007 19.7305 275.788 19.7305ZM291.327 12.7812C291.546 12.7812 291.784 12.793 292.042 12.8164C292.3 12.8398 292.523 12.8711 292.71 12.9102L292.452 15.4883C292.288 15.4414 292.085 15.4062 291.843 15.3828C291.609 15.3594 291.398 15.3477 291.21 15.3477C290.718 15.3477 290.249 15.4297 289.804 15.5938C289.359 15.75 288.964 15.9922 288.62 16.3203C288.276 16.6406 288.007 17.043 287.812 17.5273C287.616 18.0117 287.519 18.5742 287.519 19.2148V26H284.753V13.0273H286.909L287.284 15.3125H287.413C287.671 14.8516 287.991 14.4297 288.374 14.0469C288.757 13.6641 289.194 13.3594 289.687 13.1328C290.187 12.8984 290.734 12.7812 291.327 12.7812ZM300.198 12.7812C301.839 12.7812 303.077 13.1445 303.913 13.8711C304.757 14.5977 305.179 15.7305 305.179 17.2695V26H303.222L302.694 24.1602H302.601C302.234 24.6289 301.855 25.0156 301.464 25.3203C301.073 25.625 300.62 25.8516 300.105 26C299.597 26.1562 298.976 26.2344 298.241 26.2344C297.468 26.2344 296.776 26.0938 296.167 25.8125C295.558 25.5234 295.077 25.0859 294.726 24.5C294.374 23.9141 294.198 23.1719 294.198 22.2734C294.198 20.9375 294.694 19.9336 295.687 19.2617C296.687 18.5898 298.194 18.2188 300.21 18.1484L302.46 18.0664V17.3867C302.46 16.4883 302.249 15.8477 301.827 15.4648C301.413 15.082 300.827 14.8906 300.069 14.8906C299.421 14.8906 298.792 14.9844 298.183 15.1719C297.573 15.3594 296.98 15.5898 296.401 15.8633L295.511 13.918C296.144 13.582 296.862 13.3086 297.667 13.0977C298.48 12.8867 299.323 12.7812 300.198 12.7812ZM302.448 19.8008L300.773 19.8594C299.398 19.9062 298.433 20.1406 297.878 20.5625C297.323 20.9844 297.046 21.5625 297.046 22.2969C297.046 22.9375 297.237 23.4062 297.62 23.7031C298.003 23.9922 298.507 24.1367 299.132 24.1367C300.085 24.1367 300.874 23.8672 301.499 23.3281C302.132 22.7812 302.448 21.9805 302.448 20.9258V19.8008ZM311.8 26H309.034V7.76562H311.8V26Z" fill="black"/>
<path d="M92.2188 51H90.8906V45.6172H84.8906V51H83.5625V39.5781H84.8906V44.4453H90.8906V39.5781H92.2188V51ZM98.4609 42.2812C99.1901 42.2812 99.8151 42.4427 100.336 42.7656C100.857 43.0885 101.255 43.5417 101.531 44.125C101.807 44.7031 101.945 45.3802 101.945 46.1562V46.9609H96.0312C96.0469 47.9661 96.2969 48.7318 96.7812 49.2578C97.2656 49.7839 97.9479 50.0469 98.8281 50.0469C99.3698 50.0469 99.849 49.9974 100.266 49.8984C100.682 49.7995 101.115 49.6536 101.562 49.4609V50.6016C101.13 50.7943 100.701 50.9349 100.273 51.0234C99.8516 51.112 99.3516 51.1562 98.7734 51.1562C97.9505 51.1562 97.2318 50.9896 96.6172 50.6562C96.0078 50.3177 95.5339 49.8229 95.1953 49.1719C94.8568 48.5208 94.6875 47.724 94.6875 46.7812C94.6875 45.8594 94.8411 45.0625 95.1484 44.3906C95.4609 43.7135 95.8984 43.1927 96.4609 42.8281C97.0286 42.4635 97.6953 42.2812 98.4609 42.2812ZM98.4453 43.3438C97.7526 43.3438 97.2005 43.5703 96.7891 44.0234C96.3776 44.4766 96.1328 45.1094 96.0547 45.9219H100.586C100.581 45.4115 100.5 44.9635 100.344 44.5781C100.193 44.1875 99.9609 43.8854 99.6484 43.6719C99.3359 43.4531 98.9349 43.3438 98.4453 43.3438ZM107.352 42.2969C108.372 42.2969 109.13 42.526 109.625 42.9844C110.12 43.4427 110.367 44.1745 110.367 45.1797V51H109.422L109.172 49.7344H109.109C108.87 50.0469 108.62 50.3099 108.359 50.5234C108.099 50.7318 107.797 50.8906 107.453 51C107.115 51.1042 106.698 51.1562 106.203 51.1562C105.682 51.1562 105.219 51.0651 104.812 50.8828C104.411 50.7005 104.094 50.4245 103.859 50.0547C103.63 49.6849 103.516 49.2161 103.516 48.6484C103.516 47.7943 103.854 47.138 104.531 46.6797C105.208 46.2214 106.24 45.9714 107.625 45.9297L109.102 45.8672V45.3438C109.102 44.6042 108.943 44.0859 108.625 43.7891C108.307 43.4922 107.859 43.3438 107.281 43.3438C106.833 43.3438 106.406 43.4089 106 43.5391C105.594 43.6693 105.208 43.8229 104.844 44L104.445 43.0156C104.831 42.8177 105.273 42.6484 105.773 42.5078C106.273 42.3672 106.799 42.2969 107.352 42.2969ZM109.086 46.7812L107.781 46.8359C106.714 46.8776 105.961 47.0521 105.523 47.3594C105.086 47.6667 104.867 48.1016 104.867 48.6641C104.867 49.1536 105.016 49.5156 105.312 49.75C105.609 49.9844 106.003 50.1016 106.492 50.1016C107.253 50.1016 107.875 49.8906 108.359 49.4688C108.844 49.0469 109.086 48.4141 109.086 47.5703V46.7812ZM114.344 51H113.039V38.8438H114.344V51ZM119.852 50.0938C120.065 50.0938 120.284 50.0755 120.508 50.0391C120.732 50.0026 120.914 49.9583 121.055 49.9062V50.9141C120.904 50.9818 120.693 51.0391 120.422 51.0859C120.156 51.1328 119.896 51.1562 119.641 51.1562C119.188 51.1562 118.776 51.0781 118.406 50.9219C118.036 50.7604 117.74 50.4896 117.516 50.1094C117.297 49.7292 117.188 49.2031 117.188 48.5312V43.4531H115.969V42.8203L117.195 42.3125L117.711 40.4531H118.492V42.4375H121V43.4531H118.492V48.4922C118.492 49.0286 118.615 49.4297 118.859 49.6953C119.109 49.9609 119.44 50.0938 119.852 50.0938ZM124.086 38.8438V42.4766C124.086 42.6849 124.081 42.8958 124.07 43.1094C124.06 43.3177 124.042 43.5104 124.016 43.6875H124.102C124.279 43.3854 124.503 43.1328 124.773 42.9297C125.049 42.7214 125.362 42.5651 125.711 42.4609C126.06 42.3516 126.43 42.2969 126.82 42.2969C127.508 42.2969 128.081 42.4062 128.539 42.625C129.003 42.8438 129.349 43.1823 129.578 43.6406C129.812 44.099 129.93 44.6927 129.93 45.4219V51H128.648V45.5078C128.648 44.7943 128.484 44.2604 128.156 43.9062C127.833 43.5521 127.336 43.375 126.664 43.375C126.029 43.375 125.521 43.4974 125.141 43.7422C124.766 43.9818 124.495 44.3359 124.328 44.8047C124.167 45.2734 124.086 45.8464 124.086 46.5234V51H122.789V38.8438H124.086ZM140.258 39.3984C140.82 39.3984 141.305 39.4974 141.711 39.6953C142.122 39.888 142.438 40.1667 142.656 40.5312C142.88 40.8958 142.992 41.3359 142.992 41.8516C142.992 42.5286 142.771 43.1016 142.328 43.5703C141.891 44.0391 141.333 44.4661 140.656 44.8516L143.828 47.9297C144.115 47.5964 144.349 47.2109 144.531 46.7734C144.714 46.3307 144.867 45.8516 144.992 45.3359H146.305C146.138 46.0234 145.922 46.6562 145.656 47.2344C145.396 47.8125 145.068 48.3203 144.672 48.7578L146.961 51H145.203L143.789 49.6172C143.456 49.9245 143.096 50.1953 142.711 50.4297C142.331 50.6589 141.906 50.8385 141.438 50.9688C140.974 51.0938 140.443 51.1562 139.844 51.1562C139.115 51.1562 138.482 51.0365 137.945 50.7969C137.409 50.5573 136.992 50.2057 136.695 49.7422C136.404 49.2786 136.258 48.7109 136.258 48.0391C136.258 47.487 136.359 47.013 136.562 46.6172C136.766 46.2214 137.055 45.8698 137.43 45.5625C137.805 45.2552 138.253 44.9557 138.773 44.6641C138.529 44.3932 138.297 44.1198 138.078 43.8438C137.859 43.5625 137.682 43.263 137.547 42.9453C137.411 42.6224 137.344 42.2682 137.344 41.8828C137.344 41.362 137.461 40.9167 137.695 40.5469C137.935 40.1771 138.271 39.8932 138.703 39.6953C139.141 39.4974 139.659 39.3984 140.258 39.3984ZM139.555 45.4844C139.148 45.7188 138.799 45.9505 138.508 46.1797C138.221 46.4089 138 46.6667 137.844 46.9531C137.693 47.2396 137.617 47.5859 137.617 47.9922C137.617 48.6016 137.823 49.0911 138.234 49.4609C138.646 49.8255 139.195 50.0078 139.883 50.0078C140.591 50.0078 141.193 49.8906 141.688 49.6562C142.188 49.4219 142.612 49.138 142.961 48.8047L139.555 45.4844ZM140.211 40.4688C139.737 40.4688 139.352 40.5938 139.055 40.8438C138.763 41.0885 138.617 41.4323 138.617 41.875C138.617 42.2708 138.724 42.6354 138.938 42.9688C139.151 43.3021 139.456 43.6719 139.852 44.0781C140.503 43.7188 140.974 43.3724 141.266 43.0391C141.562 42.7005 141.711 42.3047 141.711 41.8516C141.711 41.4401 141.573 41.1068 141.297 40.8516C141.026 40.5964 140.664 40.4688 140.211 40.4688ZM161.836 45.1797C161.836 46.4661 161.602 47.5417 161.133 48.4062C160.664 49.2656 159.984 49.9141 159.094 50.3516C158.208 50.7839 157.133 51 155.867 51H152.766V39.5781H156.211C157.372 39.5781 158.372 39.7917 159.211 40.2188C160.049 40.6406 160.695 41.2682 161.148 42.1016C161.607 42.9297 161.836 43.9557 161.836 45.1797ZM160.438 45.2266C160.438 44.2005 160.266 43.3542 159.922 42.6875C159.583 42.0208 159.083 41.526 158.422 41.2031C157.766 40.875 156.961 40.7109 156.008 40.7109H154.094V49.8594H155.711C157.284 49.8594 158.464 49.4714 159.25 48.6953C160.042 47.9193 160.438 46.763 160.438 45.2266ZM167.477 42.2812C168.206 42.2812 168.831 42.4427 169.352 42.7656C169.872 43.0885 170.271 43.5417 170.547 44.125C170.823 44.7031 170.961 45.3802 170.961 46.1562V46.9609H165.047C165.062 47.9661 165.312 48.7318 165.797 49.2578C166.281 49.7839 166.964 50.0469 167.844 50.0469C168.385 50.0469 168.865 49.9974 169.281 49.8984C169.698 49.7995 170.13 49.6536 170.578 49.4609V50.6016C170.146 50.7943 169.716 50.9349 169.289 51.0234C168.867 51.112 168.367 51.1562 167.789 51.1562C166.966 51.1562 166.247 50.9896 165.633 50.6562C165.023 50.3177 164.549 49.8229 164.211 49.1719C163.872 48.5208 163.703 47.724 163.703 46.7812C163.703 45.8594 163.857 45.0625 164.164 44.3906C164.477 43.7135 164.914 43.1927 165.477 42.8281C166.044 42.4635 166.711 42.2812 167.477 42.2812ZM167.461 43.3438C166.768 43.3438 166.216 43.5703 165.805 44.0234C165.393 44.4766 165.148 45.1094 165.07 45.9219H169.602C169.596 45.4115 169.516 44.9635 169.359 44.5781C169.208 44.1875 168.977 43.8854 168.664 43.6719C168.352 43.4531 167.951 43.3438 167.461 43.3438ZM177.219 42.2812C178.234 42.2812 179.003 42.5312 179.523 43.0312C180.044 43.526 180.305 44.3229 180.305 45.4219V51H179.023V45.5078C179.023 44.7943 178.859 44.2604 178.531 43.9062C178.208 43.5521 177.711 43.375 177.039 43.375C176.091 43.375 175.424 43.6432 175.039 44.1797C174.654 44.7161 174.461 45.4948 174.461 46.5156V51H173.164V42.4375H174.211L174.406 43.6719H174.477C174.659 43.3698 174.891 43.1172 175.172 42.9141C175.453 42.7057 175.768 42.5495 176.117 42.4453C176.466 42.3359 176.833 42.2812 177.219 42.2812ZM185.742 50.0938C185.956 50.0938 186.174 50.0755 186.398 50.0391C186.622 50.0026 186.805 49.9583 186.945 49.9062V50.9141C186.794 50.9818 186.583 51.0391 186.312 51.0859C186.047 51.1328 185.786 51.1562 185.531 51.1562C185.078 51.1562 184.667 51.0781 184.297 50.9219C183.927 50.7604 183.63 50.4896 183.406 50.1094C183.188 49.7292 183.078 49.2031 183.078 48.5312V43.4531H181.859V42.8203L183.086 42.3125L183.602 40.4531H184.383V42.4375H186.891V43.4531H184.383V48.4922C184.383 49.0286 184.505 49.4297 184.75 49.6953C185 49.9609 185.331 50.0938 185.742 50.0938ZM191.883 42.2969C192.904 42.2969 193.661 42.526 194.156 42.9844C194.651 43.4427 194.898 44.1745 194.898 45.1797V51H193.953L193.703 49.7344H193.641C193.401 50.0469 193.151 50.3099 192.891 50.5234C192.63 50.7318 192.328 50.8906 191.984 51C191.646 51.1042 191.229 51.1562 190.734 51.1562C190.214 51.1562 189.75 51.0651 189.344 50.8828C188.943 50.7005 188.625 50.4245 188.391 50.0547C188.161 49.6849 188.047 49.2161 188.047 48.6484C188.047 47.7943 188.385 47.138 189.062 46.6797C189.74 46.2214 190.771 45.9714 192.156 45.9297L193.633 45.8672V45.3438C193.633 44.6042 193.474 44.0859 193.156 43.7891C192.839 43.4922 192.391 43.3438 191.812 43.3438C191.365 43.3438 190.938 43.4089 190.531 43.5391C190.125 43.6693 189.74 43.8229 189.375 44L188.977 43.0156C189.362 42.8177 189.805 42.6484 190.305 42.5078C190.805 42.3672 191.331 42.2969 191.883 42.2969ZM193.617 46.7812L192.312 46.8359C191.245 46.8776 190.492 47.0521 190.055 47.3594C189.617 47.6667 189.398 48.1016 189.398 48.6641C189.398 49.1536 189.547 49.5156 189.844 49.75C190.141 49.9844 190.534 50.1016 191.023 50.1016C191.784 50.1016 192.406 49.8906 192.891 49.4688C193.375 49.0469 193.617 48.4141 193.617 47.5703V46.7812ZM198.875 51H197.57V38.8438H198.875V51ZM213.133 51L211.727 47.375H207.148L205.75 51H204.406L208.875 39.5312H210.07L214.508 51H213.133ZM211.328 46.1953L209.992 42.5938C209.961 42.5 209.909 42.3464 209.836 42.1328C209.768 41.9193 209.698 41.6979 209.625 41.4688C209.552 41.2396 209.492 41.0547 209.445 40.9141C209.393 41.1276 209.336 41.3411 209.273 41.5547C209.216 41.763 209.159 41.9583 209.102 42.1406C209.044 42.3177 208.995 42.4688 208.953 42.5938L207.594 46.1953H211.328ZM219.195 42.2812C219.924 42.2812 220.549 42.4427 221.07 42.7656C221.591 43.0885 221.99 43.5417 222.266 44.125C222.542 44.7031 222.68 45.3802 222.68 46.1562V46.9609H216.766C216.781 47.9661 217.031 48.7318 217.516 49.2578C218 49.7839 218.682 50.0469 219.562 50.0469C220.104 50.0469 220.583 49.9974 221 49.8984C221.417 49.7995 221.849 49.6536 222.297 49.4609V50.6016C221.865 50.7943 221.435 50.9349 221.008 51.0234C220.586 51.112 220.086 51.1562 219.508 51.1562C218.685 51.1562 217.966 50.9896 217.352 50.6562C216.742 50.3177 216.268 49.8229 215.93 49.1719C215.591 48.5208 215.422 47.724 215.422 46.7812C215.422 45.8594 215.576 45.0625 215.883 44.3906C216.195 43.7135 216.633 43.1927 217.195 42.8281C217.763 42.4635 218.43 42.2812 219.195 42.2812ZM219.18 43.3438C218.487 43.3438 217.935 43.5703 217.523 44.0234C217.112 44.4766 216.867 45.1094 216.789 45.9219H221.32C221.315 45.4115 221.234 44.9635 221.078 44.5781C220.927 44.1875 220.695 43.8854 220.383 43.6719C220.07 43.4531 219.669 43.3438 219.18 43.3438ZM230.422 48.6562C230.422 49.2031 230.284 49.6641 230.008 50.0391C229.737 50.4089 229.346 50.6875 228.836 50.875C228.331 51.0625 227.727 51.1562 227.023 51.1562C226.424 51.1562 225.906 51.1094 225.469 51.0156C225.031 50.9219 224.648 50.7891 224.32 50.6172V49.4219C224.669 49.5938 225.086 49.75 225.57 49.8906C226.055 50.0312 226.549 50.1016 227.055 50.1016C227.794 50.1016 228.331 49.9818 228.664 49.7422C228.997 49.5026 229.164 49.1771 229.164 48.7656C229.164 48.5312 229.096 48.3255 228.961 48.1484C228.831 47.9661 228.609 47.7917 228.297 47.625C227.984 47.4531 227.552 47.2656 227 47.0625C226.453 46.8542 225.979 46.6484 225.578 46.4453C225.182 46.237 224.875 45.9844 224.656 45.6875C224.443 45.3906 224.336 45.0052 224.336 44.5312C224.336 43.8073 224.628 43.2526 225.211 42.8672C225.799 42.4766 226.57 42.2812 227.523 42.2812C228.039 42.2812 228.521 42.3333 228.969 42.4375C229.422 42.5365 229.844 42.6719 230.234 42.8438L229.797 43.8828C229.443 43.7318 229.065 43.6042 228.664 43.5C228.263 43.3958 227.854 43.3438 227.438 43.3438C226.839 43.3438 226.378 43.4427 226.055 43.6406C225.737 43.8385 225.578 44.1094 225.578 44.4531C225.578 44.7188 225.651 44.9375 225.797 45.1094C225.948 45.2812 226.188 45.4427 226.516 45.5938C226.844 45.7448 227.276 45.9219 227.812 46.125C228.349 46.3229 228.812 46.5286 229.203 46.7422C229.594 46.9505 229.893 47.2057 230.102 47.5078C230.315 47.8047 230.422 48.1875 230.422 48.6562ZM235.273 50.0938C235.487 50.0938 235.706 50.0755 235.93 50.0391C236.154 50.0026 236.336 49.9583 236.477 49.9062V50.9141C236.326 50.9818 236.115 51.0391 235.844 51.0859C235.578 51.1328 235.318 51.1562 235.062 51.1562C234.609 51.1562 234.198 51.0781 233.828 50.9219C233.458 50.7604 233.161 50.4896 232.938 50.1094C232.719 49.7292 232.609 49.2031 232.609 48.5312V43.4531H231.391V42.8203L232.617 42.3125L233.133 40.4531H233.914V42.4375H236.422V43.4531H233.914V48.4922C233.914 49.0286 234.036 49.4297 234.281 49.6953C234.531 49.9609 234.862 50.0938 235.273 50.0938ZM239.508 38.8438V42.4766C239.508 42.6849 239.503 42.8958 239.492 43.1094C239.482 43.3177 239.464 43.5104 239.438 43.6875H239.523C239.701 43.3854 239.924 43.1328 240.195 42.9297C240.471 42.7214 240.784 42.5651 241.133 42.4609C241.482 42.3516 241.852 42.2969 242.242 42.2969C242.93 42.2969 243.503 42.4062 243.961 42.625C244.424 42.8438 244.771 43.1823 245 43.6406C245.234 44.099 245.352 44.6927 245.352 45.4219V51H244.07V45.5078C244.07 44.7943 243.906 44.2604 243.578 43.9062C243.255 43.5521 242.758 43.375 242.086 43.375C241.451 43.375 240.943 43.4974 240.562 43.7422C240.188 43.9818 239.917 44.3359 239.75 44.8047C239.589 45.2734 239.508 45.8464 239.508 46.5234V51H238.211V38.8438H239.508ZM251.32 42.2812C252.049 42.2812 252.674 42.4427 253.195 42.7656C253.716 43.0885 254.115 43.5417 254.391 44.125C254.667 44.7031 254.805 45.3802 254.805 46.1562V46.9609H248.891C248.906 47.9661 249.156 48.7318 249.641 49.2578C250.125 49.7839 250.807 50.0469 251.688 50.0469C252.229 50.0469 252.708 49.9974 253.125 49.8984C253.542 49.7995 253.974 49.6536 254.422 49.4609V50.6016C253.99 50.7943 253.56 50.9349 253.133 51.0234C252.711 51.112 252.211 51.1562 251.633 51.1562C250.81 51.1562 250.091 50.9896 249.477 50.6562C248.867 50.3177 248.393 49.8229 248.055 49.1719C247.716 48.5208 247.547 47.724 247.547 46.7812C247.547 45.8594 247.701 45.0625 248.008 44.3906C248.32 43.7135 248.758 43.1927 249.32 42.8281C249.888 42.4635 250.555 42.2812 251.32 42.2812ZM251.305 43.3438C250.612 43.3438 250.06 43.5703 249.648 44.0234C249.237 44.4766 248.992 45.1094 248.914 45.9219H253.445C253.44 45.4115 253.359 44.9635 253.203 44.5781C253.052 44.1875 252.82 43.8854 252.508 43.6719C252.195 43.4531 251.794 43.3438 251.305 43.3438ZM259.773 50.0938C259.987 50.0938 260.206 50.0755 260.43 50.0391C260.654 50.0026 260.836 49.9583 260.977 49.9062V50.9141C260.826 50.9818 260.615 51.0391 260.344 51.0859C260.078 51.1328 259.818 51.1562 259.562 51.1562C259.109 51.1562 258.698 51.0781 258.328 50.9219C257.958 50.7604 257.661 50.4896 257.438 50.1094C257.219 49.7292 257.109 49.2031 257.109 48.5312V43.4531H255.891V42.8203L257.117 42.3125L257.633 40.4531H258.414V42.4375H260.922V43.4531H258.414V48.4922C258.414 49.0286 258.536 49.4297 258.781 49.6953C259.031 49.9609 259.362 50.0938 259.773 50.0938ZM264.008 42.4375V51H262.711V42.4375H264.008ZM263.375 39.2344C263.589 39.2344 263.771 39.3047 263.922 39.4453C264.078 39.5807 264.156 39.7943 264.156 40.0859C264.156 40.3724 264.078 40.5859 263.922 40.7266C263.771 40.8672 263.589 40.9375 263.375 40.9375C263.151 40.9375 262.964 40.8672 262.812 40.7266C262.667 40.5859 262.594 40.3724 262.594 40.0859C262.594 39.7943 262.667 39.5807 262.812 39.4453C262.964 39.3047 263.151 39.2344 263.375 39.2344ZM270.188 51.1562C269.417 51.1562 268.737 50.9974 268.148 50.6797C267.56 50.362 267.102 49.8776 266.773 49.2266C266.445 48.5755 266.281 47.7552 266.281 46.7656C266.281 45.7292 266.453 44.8828 266.797 44.2266C267.146 43.5651 267.625 43.0755 268.234 42.7578C268.844 42.4401 269.536 42.2812 270.312 42.2812C270.74 42.2812 271.151 42.3255 271.547 42.4141C271.948 42.4974 272.276 42.6042 272.531 42.7344L272.141 43.8203C271.88 43.7161 271.578 43.6224 271.234 43.5391C270.896 43.4557 270.578 43.4141 270.281 43.4141C269.688 43.4141 269.193 43.5417 268.797 43.7969C268.406 44.0521 268.112 44.4271 267.914 44.9219C267.721 45.4167 267.625 46.026 267.625 46.75C267.625 47.4427 267.719 48.0339 267.906 48.5234C268.099 49.013 268.383 49.388 268.758 49.6484C269.138 49.9036 269.612 50.0312 270.18 50.0312C270.633 50.0312 271.042 49.9844 271.406 49.8906C271.771 49.7917 272.102 49.6771 272.398 49.5469V50.7031C272.112 50.849 271.792 50.9609 271.438 51.0391C271.089 51.1172 270.672 51.1562 270.188 51.1562ZM279.969 48.6562C279.969 49.2031 279.831 49.6641 279.555 50.0391C279.284 50.4089 278.893 50.6875 278.383 50.875C277.878 51.0625 277.273 51.1562 276.57 51.1562C275.971 51.1562 275.453 51.1094 275.016 51.0156C274.578 50.9219 274.195 50.7891 273.867 50.6172V49.4219C274.216 49.5938 274.633 49.75 275.117 49.8906C275.602 50.0312 276.096 50.1016 276.602 50.1016C277.341 50.1016 277.878 49.9818 278.211 49.7422C278.544 49.5026 278.711 49.1771 278.711 48.7656C278.711 48.5312 278.643 48.3255 278.508 48.1484C278.378 47.9661 278.156 47.7917 277.844 47.625C277.531 47.4531 277.099 47.2656 276.547 47.0625C276 46.8542 275.526 46.6484 275.125 46.4453C274.729 46.237 274.422 45.9844 274.203 45.6875C273.99 45.3906 273.883 45.0052 273.883 44.5312C273.883 43.8073 274.174 43.2526 274.758 42.8672C275.346 42.4766 276.117 42.2812 277.07 42.2812C277.586 42.2812 278.068 42.3333 278.516 42.4375C278.969 42.5365 279.391 42.6719 279.781 42.8438L279.344 43.8828C278.99 43.7318 278.612 43.6042 278.211 43.5C277.81 43.3958 277.401 43.3438 276.984 43.3438C276.385 43.3438 275.924 43.4427 275.602 43.6406C275.284 43.8385 275.125 44.1094 275.125 44.4531C275.125 44.7188 275.198 44.9375 275.344 45.1094C275.495 45.2812 275.734 45.4427 276.062 45.5938C276.391 45.7448 276.823 45.9219 277.359 46.125C277.896 46.3229 278.359 46.5286 278.75 46.7422C279.141 46.9505 279.44 47.2057 279.648 47.5078C279.862 47.8047 279.969 48.1875 279.969 48.6562Z" fill="black"/>
<g clip-path="url(#clip0_4_46)">
<path d="M1.73733 28.2164C1.73698 28.2155 1.73663 28.2145 1.73627 28.2136C1.73662 28.2145 1.73698 28.2155 1.73733 28.2164ZM1.73733 28.2164C1.73734 28.2164 1.73734 28.2164 1.73734 28.2164L2.19727 28.0404L1.73733 28.2164ZM9.341 7.09508C1.86602 10.3203 -1.44103 19.6431 1.66687 28.0293L1.65715 28.0521L1.75061 28.2537L2.73378 30.3743C6.04149 37.5085 8.53468 44.9872 10.167 52.6709L11.7271 60.0151L11.7292 60.0251L11.7318 60.0351C12.3285 62.3687 14.4367 64 16.8503 64C19.4426 64 21.6535 62.1243 22.0656 59.5705L24.265 45.9392C24.4848 44.5772 25.6649 43.5736 27.0525 43.5736C28.44 43.5736 29.6202 44.5772 29.8399 45.9392L32.0393 59.5705C32.4514 62.1243 34.6623 64 37.2546 64C39.6682 64 41.7763 62.3687 42.3731 60.0351L42.3756 60.0251L42.3778 60.0151L43.9379 52.6709C45.5702 44.9872 48.0634 37.5085 51.3711 30.3743L52.3543 28.2537L52.4476 28.0523L52.438 28.0294C55.546 19.6433 52.2389 10.3203 44.7639 7.09508C41.1975 5.55629 37.3372 5.69627 33.8991 7.15739C29.9336 8.84261 24.1712 8.8426 20.2057 7.15738C16.7676 5.69628 12.9074 5.55631 9.341 7.09508Z" fill="url(#paint0_linear_4_46)" stroke="#44C6E9"/>
</g>
<defs>
<linearGradient id="paint0_linear_4_46" x1="7.89767" y1="6.5" x2="38.9282" y2="61.4365" gradientUnits="userSpaceOnUse">
<stop stop-color="#F0F6F9"/>
<stop offset="1" stop-color="#CDDFF2"/>
</linearGradient>
<clipPath id="clip0_4_46">
<rect width="54.1049" height="60" fill="white" transform="translate(0 5)"/>
</clipPath>
</defs>
</svg>
